<?xml version="1.0" standalone="no"?>
<!DOCTYPE svg PUBLIC "-//W3C//DTD SVG 20010904//EN"
 "http://www.w3.org/TR/2001/REC-SVG-20010904/DTD/svg10.dtd">
<svg version="1.0" xmlns="http://www.w3.org/2000/svg"
 width="512.000000pt" height="512.000000pt" viewBox="0 0 512.000000 512.000000"
 preserveAspectRatio="xMidYMid meet">
<metadata>
Created by potrace 1.11, written by Peter Selinger 2001-2013
</metadata>
<g transform="translate(0.000000,512.000000) scale(0.100000,-0.100000)"
fill="#000000" stroke="none">
<path d="M1933 5036 c-111 -36 -217 -135 -254 -236 l-22 -60 -239 0 c-217 0
-242 -2 -277 -20 -41 -20 -86 -67 -96 -100 -6 -19 -15 -20 -309 -20 -293 0
-303 -1 -346 -22 -24 -13 -58 -40 -74 -61 l-31 -39 0 -1216 0 -1217 23 -3 c55
-8 52 -78 52 1205 0 1099 1 1187 17 1214 33 56 53 59 367 59 l286 0 0 -99 0
-100 -204 -3 c-187 -3 -206 -5 -226 -23 -53 -47 -50 49 -50 -1882 0 -1692 1
-1800 18 -1832 9 -19 30 -44 45 -55 27 -20 44 -21 300 -24 l272 -3 55 -54 c30
-29 84 -72 119 -94 l64 -41 -487 0 c-534 0 -530 0 -561 60 -13 25 -15 98 -15
494 0 409 -2 466 -16 480 -19 19 -36 20 -52 4 -18 -18 -17 -957 1 -1001 19
-44 89 -105 129 -112 18 -3 782 -5 1698 -3 l1665 3 70 23 c258 87 447 273 531
522 l21 65 90 5 c62 4 97 11 116 23 43 28 67 75 67 131 0 100 -70 156 -196
156 l-69 0 -17 70 c-59 244 -273 476 -510 552 l-68 22 0 1318 c0 1168 -2 1323
-15 1356 -21 49 -52 81 -100 103 -36 17 -70 19 -343 19 -279 0 -303 1 -309 18
-13 38 -58 85 -97 103 -36 16 -68 19 -277 19 l-236 0 -18 48 c-38 100 -117
186 -214 230 -68 32 -209 41 -278 18z m172 -331 c30 -29 32 -64 5 -98 -47 -59
-139 -30 -140 44 -1 71 85 105 135 54z m1576 -208 c18 -12 39 -34 46 -47 10
-20 13 -306 13 -1329 l0 -1303 -22 6 c-13 3 -58 6 -100 6 l-78 0 0 1208 c0
1078 -2 1210 -16 1230 -32 47 -60 52 -264 52 l-190 0 0 100 0 100 289 0 c283
0 289 0 322 -23z m-691 -276 c0 -65 60 -61 -936 -61 -605 0 -912 3 -925 10
-13 8 -19 21 -19 45 l0 35 940 0 940 0 0 -29z m-1957 -26 c5 -52 27 -82 74
-101 49 -21 1838 -20 1888 0 41 18 75 69 75 114 l0 32 183 0 c129 0 187 -4
195 -12 9 -9 12 -292 12 -1214 l0 -1201 -85 -28 c-229 -74 -424 -267 -502
-495 l-22 -65 -48 5 c-69 7 -141 6 -193 -2 l-45 -7 -24 67 c-182 529 -846 711
-1269 348 -123 -106 -224 -265 -258 -408 l-16 -66 -83 -4 c-92 -3 -121 -17
-162 -78 -45 -66 -18 -167 57 -209 30 -16 55 -21 118 -21 l80 0 12 -49 c6 -28
29 -85 51 -128 21 -43 39 -79 39 -80 0 -2 -105 -2 -232 -1 l-233 3 -3 1809
c-1 1329 1 1812 9 1822 9 11 53 14 194 14 l182 0 6 -45z m845 -2670 c188 -33
348 -169 402 -344 27 -86 27 -216 0 -304 -65 -211 -270 -357 -500 -357 -86 1
-141 14 -225 56 -133 65 -212 156 -260 297 -100 300 104 612 430 656 33 5 62
9 65 10 3 0 42 -6 88 -14z m1844 1 c183 -33 345 -173 398 -345 27 -86 27 -216
0 -304 -65 -211 -270 -357 -500 -357 -86 1 -141 14 -225 56 -133 65 -212 156
-260 297 -70 210 13 447 201 572 81 54 169 81 299 93 6 1 45 -5 87 -12z m-909
-592 c16 -9 27 -23 27 -35 0 -42 32 -146 68 -219 20 -41 39 -78 40 -82 2 -5
-107 -8 -242 -8 l-246 0 34 69 c36 71 70 169 81 233 6 37 15 44 90 61 31 8
117 -4 148 -19z m257 -480 c25 -26 78 -68 119 -95 l74 -49 -559 0 -559 0 62
36 c34 20 90 63 125 95 l63 58 315 1 316 0 44 -46z"/>
<path d="M1042 3378 c-16 -16 -15 -43 2 -57 10 -8 282 -10 1011 -9 938 3 998
4 1009 21 8 12 8 22 0 35 -11 16 -71 17 -1011 20 -769 2 -1002 -1 -1011 -10z"/>
<path d="M1042 2978 c-16 -16 -15 -43 2 -57 10 -8 282 -10 1011 -9 938 3 998
4 1009 21 8 12 8 22 0 35 -11 16 -71 17 -1011 20 -769 2 -1002 -1 -1011 -10z"/>
<path d="M1042 2578 c-16 -16 -15 -43 2 -57 10 -8 282 -10 1011 -9 938 3 998
4 1009 20 8 13 8 23 0 36 -11 16 -71 17 -1011 20 -769 2 -1002 -1 -1011 -10z"/>
<path d="M1042 2178 c-16 -16 -15 -43 2 -57 10 -8 282 -10 1011 -9 938 3 998
4 1009 20 8 13 8 23 0 35 -11 17 -71 18 -1011 21 -769 2 -1002 -1 -1011 -10z"/>
<path d="M292 1948 c-17 -17 -17 -489 0 -506 18 -18 46 -14 58 7 6 12 10 110
10 250 0 195 -2 232 -16 245 -19 19 -36 20 -52 4z"/>
</g>
</svg>
